custom-analysis
version=1
nRows=4
nColumns=146
inDegrees=no

This file contains tibia displacement and acting force.

Units are S.I. units (seconds, meters, Newtons, ...)
Angles are in degrees.

endheader
time	APT	SIT	knee_angle	aACL_R_force	pACL_R_force	aPCL_R_force	pPCL_R_force	aMCL_R_force	mMCL_R_force	pMCL_R_force	aLCL_R_force	mLCL_R_force	pLCL_R_force	aPCL_L_force	pPCL_L_force	aMCL_L_force	aLCL_L_force	aACL_R_length	pACL_R_length	aPCL_R_length	pPCL_R_length	aMCL_R_length	mMCL_R_length	pMCL_R_length	aLCL_R_length	mLCL_R_length	pLCL_R_length	aPCL_L_length	pPCL_L_length	aMCL_L_length	aLCL_L_length	aACL_R_strain	pACL_R_strain	aPCL_R_strain	pPCL_R_strain	aMCL_R_strain	mMCL_R_strain	pMCL_R_strain	aLCL_R_strain	mLCL_R_strain	pLCL_R_strain	aPCL_L_strain	pPCL_L_strain	aMCL_L_strain	aLCL_L_strain	femur_lat_meniscii_l.femur_lat_l.force.X	femur_lat_meniscii_l.femur_lat_l.force.Y	femur_lat_meniscii_l.femur_lat_l.force.Z	femur_lat_meniscii_l.femur_lat_l.torque.X	femur_lat_meniscii_l.femur_lat_l.torque.Y	femur_lat_meniscii_l.femur_lat_l.torque.Z	femur_lat_meniscii_l.meniscus_lat_l.force.X	femur_lat_meniscii_l.meniscus_lat_l.force.Y	femur_lat_meniscii_l.meniscus_lat_l.force.Z	femur_lat_meniscii_l.meniscus_lat_l.torque.X	femur_lat_meniscii_l.meniscus_lat_l.torque.Y	femur_lat_meniscii_l.meniscus_lat_l.torque.Z	femur_med_meniscii_l.femur_med_l.force.X	femur_med_meniscii_l.femur_med_l.force.Y	femur_med_meniscii_l.femur_med_l.force.Z	femur_med_meniscii_l.femur_med_l.torque.X	femur_med_meniscii_l.femur_med_l.torque.Y	femur_med_meniscii_l.femur_med_l.torque.Z	femur_med_meniscii_l.meniscus_med_l.force.X	femur_med_meniscii_l.meniscus_med_l.force.Y	femur_med_meniscii_l.meniscus_med_l.force.Z	femur_med_meniscii_l.meniscus_med_l.torque.X	femur_med_meniscii_l.meniscus_med_l.torque.Y	femur_med_meniscii_l.meniscus_med_l.torque.Z	femur_lat_meniscii_r.femur_lat_r.force.X	femur_lat_meniscii_r.femur_lat_r.force.Y	femur_lat_meniscii_r.femur_lat_r.force.Z	femur_lat_meniscii_r.femur_lat_r.torque.X	femur_lat_meniscii_r.femur_lat_r.torque.Y	femur_lat_meniscii_r.femur_lat_r.torque.Z	femur_lat_meniscii_r.meniscus_lat_r.force.X	femur_lat_meniscii_r.meniscus_lat_r.force.Y	femur_lat_meniscii_r.meniscus_lat_r.force.Z	femur_lat_meniscii_r.meniscus_lat_r.torque.X	femur_lat_meniscii_r.meniscus_lat_r.torque.Y	femur_lat_meniscii_r.meniscus_lat_r.torque.Z	femur_med_meniscii_r.femur_med_r.force.X	femur_med_meniscii_r.femur_med_r.force.Y	femur_med_meniscii_r.femur_med_r.force.Z	femur_med_meniscii_r.femur_med_r.torque.X	femur_med_meniscii_r.femur_med_r.torque.Y	femur_med_meniscii_r.femur_med_r.torque.Z	femur_med_meniscii_r.meniscus_med_r.force.X	femur_med_meniscii_r.meniscus_med_r.force.Y	femur_med_meniscii_r.meniscus_med_r.force.Z	femur_med_meniscii_r.meniscus_med_r.torque.X	femur_med_meniscii_r.meniscus_med_r.torque.Y	femur_med_meniscii_r.meniscus_med_r.torque.Z	femur_med_tibia_l.tibia_upper_l.force.X	femur_med_tibia_l.tibia_upper_l.force.Y	femur_med_tibia_l.tibia_upper_l.force.Z	femur_med_tibia_l.tibia_upper_l.torque.X	femur_med_tibia_l.tibia_upper_l.torque.Y	femur_med_tibia_l.tibia_upper_l.torque.Z	femur_med_tibia_l.femur_med_l.force.X	femur_med_tibia_l.femur_med_l.force.Y	femur_med_tibia_l.femur_med_l.force.Z	femur_med_tibia_l.femur_med_l.torque.X	femur_med_tibia_l.femur_med_l.torque.Y	femur_med_tibia_l.femur_med_l.torque.Z	femur_lat_tibia_l.tibia_upper_l.force.X	femur_lat_tibia_l.tibia_upper_l.force.Y	femur_lat_tibia_l.tibia_upper_l.force.Z	femur_lat_tibia_l.tibia_upper_l.torque.X	femur_lat_tibia_l.tibia_upper_l.torque.Y	femur_lat_tibia_l.tibia_upper_l.torque.Z	femur_lat_tibia_l.femur_lat_l.force.X	femur_lat_tibia_l.femur_lat_l.force.Y	femur_lat_tibia_l.femur_lat_l.force.Z	femur_lat_tibia_l.femur_lat_l.torque.X	femur_lat_tibia_l.femur_lat_l.torque.Y	femur_lat_tibia_l.femur_lat_l.torque.Z	femur_med_tibia_r.tibia_upper_r.force.X	femur_med_tibia_r.tibia_upper_r.force.Y	femur_med_tibia_r.tibia_upper_r.force.Z	femur_med_tibia_r.tibia_upper_r.torque.X	femur_med_tibia_r.tibia_upper_r.torque.Y	femur_med_tibia_r.tibia_upper_r.torque.Z	femur_med_tibia_r.femur_med_r.force.X	femur_med_tibia_r.femur_med_r.force.Y	femur_med_tibia_r.femur_med_r.force.Z	femur_med_tibia_r.femur_med_r.torque.X	femur_med_tibia_r.femur_med_r.torque.Y	femur_med_tibia_r.femur_med_r.torque.Z	femur_lat_tibia_r.tibia_upper_r.force.X	femur_lat_tibia_r.tibia_upper_r.force.Y	femur_lat_tibia_r.tibia_upper_r.force.Z	femur_lat_tibia_r.tibia_upper_r.torque.X	femur_lat_tibia_r.tibia_upper_r.torque.Y	femur_lat_tibia_r.tibia_upper_r.torque.Z	femur_lat_tibia_r.femur_lat_r.force.X	femur_lat_tibia_r.femur_lat_r.force.Y	femur_lat_tibia_r.femur_lat_r.force.Z	femur_lat_tibia_r.femur_lat_r.torque.X	femur_lat_tibia_r.femur_lat_r.torque.Y	femur_lat_tibia_r.femur_lat_r.torque.Z	femur_lat_meniscii_force_r	femur_med_meniscii_force_r	femur_lat_tibia_force_r	femur_med_tibia_force_r
      0.10776764	      0.00131028	      0.00065838	      1.66574369	     11.66273934	     25.78162512	      0.00000000	      0.00000000	      0.00000000	      6.26703336	     28.25719849	      1.74087813	      0.00000000	      1.67606026	      0.00000000	      0.00000000	      0.00000001	      0.00000000	      0.03213524	      0.02647932	      0.02831255	      0.02853670	      0.05648069	      0.06115900	      0.06341796	      0.05614469	      0.05450578	      0.05262292	      0.01525851	      0.01651186	      0.06550154	      0.04489616	      0.03643660	      0.05669174	     -0.08949115	     -0.04520559	     -0.04313813	      0.02283695	      0.06177933	      0.00299220	     -0.03218867	      0.00535355	      0.00000079	     -0.32847694	      0.00000060	     -0.00000086	      2.76307435	     50.99597937	     -9.56042239	      5.21997485	     -0.02578839	      1.48581788	     -2.76307435	    -50.99597937	      9.56042239	     -1.74637766	      0.02558040	     -0.48301696	     -3.31599387	     20.97615968	     -3.40468921	      0.94473225	     -0.02138609	     -1.00501789	      3.31599387	    -20.97615968	      3.40468921	      0.28075727	      0.00368718	     -0.29758878	     20.92282438	    107.41924434	     -1.90896363	     -1.93583170	      0.56231338	      9.22767857	    -20.92282438	   -107.41924434	      1.90896363	      3.26912226	     -0.67742204	     -1.09168347	     64.10926096	     98.15489003	      5.44667719	     -0.16691365	     -1.41649702	     27.14274492	    -64.10926096	    -98.15489003	     -5.44667719	     -1.37975816	      1.05421743	     -2.40922468	      0.00000000	      0.00000000	      0.00000000	      0.00000000	      0.00000000	      0.00000000	      0.00000000	      0.00000000	      0.00000000	      0.00000000	      0.00000000	      0.00000000	      0.00000000	      0.00000000	      0.00000000	      0.00000000	      0.00000000	      0.00000000	      0.00000000	      0.00000000	      0.00000000	      0.00000000	      0.00000000	      0.00000000	     -0.06800887	     -0.27521115	      0.09136477	     -0.00605574	     -0.00026129	     -0.00529841	      0.06800887	      0.27521115	     -0.09136477	      0.04272129	     -0.00004066	      0.03168147	     -0.50542063	    -13.26237124	     -3.51922591	      0.50028015	      0.00294380	     -0.08285264	      0.50542063	     13.26237124	      3.51922591	     -1.77944844	     -0.00874726	      0.28843356	    109.45456946	    117.36288199	     13.73065519	      0.29784880
      0.11099025	      0.00133622	      0.00065132	      1.66574369	     11.79111622	     26.07282467	      0.00000000	      0.00000000	      0.00000000	      6.02192459	     28.14508590	      1.27201285	      0.00000000	      1.23764208	      0.00000000	      0.00000000	      0.00000001	      0.00000000	      0.03214927	      0.02649255	      0.02830553	      0.02852949	      0.05649520	      0.06117123	      0.06343043	      0.05615041	      0.05451120	      0.05262806	      0.01525851	      0.01651186	      0.06550154	      0.04489616	      0.03688923	      0.05721982	     -0.08971686	     -0.04544699	     -0.04289226	      0.02304146	      0.06198822	      0.00309427	     -0.03209245	      0.00545171	      0.00000079	     -0.32847694	      0.00000060	     -0.00000086	      2.76307435	     50.99597937	     -9.56042239	      5.21997485	     -0.02578839	      1.48581788	     -2.76307435	    -50.99597937	      9.56042239	     -1.74637766	      0.02558040	     -0.48301696	     -3.31599387	     20.97615968	     -3.40468921	      0.94473225	     -0.02138609	     -1.00501789	      3.31599387	    -20.97615968	      3.40468921	      0.28075727	      0.00368718	     -0.29758878	     21.18293741	    107.35261341	     -1.26946368	     -2.20193742	      0.56506268	      9.34219584	    -21.18293741	   -107.35261341	      1.26946368	      3.28975542	     -0.68227843	     -1.10268157	     62.32152232	     96.26729319	      5.11943310	     -0.07601166	     -1.37128503	     26.38716850	    -62.32152232	    -96.26729319	     -5.11943310	     -1.35471198	      1.01864393	     -2.33906045	      0.00000000	      0.00000000	      0.00000000	      0.00000000	      0.00000000	      0.00000000	      0.00000000	      0.00000000	      0.00000000	      0.00000000	      0.00000000	      0.00000000	      0.00000000	      0.00000000	      0.00000000	      0.00000000	      0.00000000	      0.00000000	      0.00000000	      0.00000000	      0.00000000	      0.00000000	      0.00000000	      0.00000000	     -0.04536489	     -0.17876211	      0.05958320	     -0.00393400	     -0.00016154	     -0.00349063	      0.04536489	      0.17876211	     -0.05958320	      0.02784315	     -0.00003949	      0.02109122	     -0.47432189	    -11.81632920	     -3.17785922	      0.44742221	      0.00206159	     -0.07441238	      0.47432189	     11.81632920	      3.17785922	     -1.60334366	     -0.00750536	      0.26718499	    109.42994097	    114.79360818	     12.24538306	      0.19381441
      0.11459033	      0.00136945	      0.00064591	      1.66574369	     12.22157129	     26.66319953	      0.00000000	      0.00000000	      0.00000000	      6.33817452	     28.59308564	      1.51796912	      0.00000000	      1.50621003	      0.00000000	      0.00000000	      0.00000001	      0.00000000	      0.03216367	      0.02650569	      0.02829446	      0.02851819	      0.05650976	      0.06118300	      0.06344265	      0.05615441	      0.05451496	      0.05263151	      0.01525851	      0.01651186	      0.06550154	      0.04489616	      0.03735365	      0.05774387	     -0.09007267	     -0.04582512	     -0.04264560	      0.02323828	      0.06219272	      0.00316581	     -0.03202569	      0.00551766	      0.00000079	     -0.32847694	      0.00000060	     -0.00000086	      2.76307435	     50.99597937	     -9.56042239	      5.21997485	     -0.02578839	      1.48581788	     -2.76307435	    -50.99597937	      9.56042239	     -1.74637766	      0.02558040	     -0.48301696	     -3.31599387	     20.97615968	     -3.40468921	      0.94473225	     -0.02138609	     -1.00501789	      3.31599387	    -20.97615968	      3.40468921	      0.28075727	      0.00368718	     -0.29758878	     21.47448625	    106.42176848	     -0.78126268	     -2.38332069	      0.56962812	      9.45841340	    -21.47448625	   -106.42176848	      0.78126268	      3.27865373	     -0.68895849	     -1.10338928	     62.44408102	     95.08233388	      5.32663414	     -0.19576936	     -1.37454863	     26.44341504	    -62.44408102	    -95.08233388	     -5.32663414	     -1.32090192	      1.02058566	     -2.34512578	      0.00000000	      0.00000000	      0.00000000	      0.00000000	      0.00000000	      0.00000000	      0.00000000	      0.00000000	      0.00000000	      0.00000000	      0.00000000	      0.00000000	      0.00000000	      0.00000000	      0.00000000	      0.00000000	      0.00000000	      0.00000000	      0.00000000	      0.00000000	      0.00000000	      0.00000000	      0.00000000	      0.00000000	     -0.04015764	     -0.15208364	      0.05060096	     -0.00335104	     -0.00011435	     -0.00300973	      0.04015764	      0.15208364	     -0.05060096	      0.02365835	     -0.00006372	      0.01859071	     -0.46933974	    -10.95859230	     -2.99067515	      0.41667454	      0.00121306	     -0.06980202	      0.46933974	     10.95859230	      2.99067515	     -1.50539090	     -0.00658049	      0.26032667	    108.56959398	    113.87838470	     11.36904406	      0.16523476
      0.11819042	      0.00140530	      0.00063918	      1.66574369	     12.49394274	     27.15736067	      0.00000000	      0.00000000	      0.00000000	      6.13461672	     28.52023949	      1.27455439	      0.00000000	      1.27854504	      0.00000000	      0.00000000	      0.00000001	      0.00000000	      0.03217989	      0.02652047	      0.02828354	      0.02850709	      0.05652587	      0.06119618	      0.06345637	      0.05615996	      0.05452032	      0.05263657	      0.01525851	      0.01651186	      0.06550154	      0.04489616	      0.03787674	      0.05833367	     -0.09042393	     -0.04619635	     -0.04237272	      0.02345866	      0.06242241	      0.00326484	     -0.03193052	      0.00561433	      0.00000079	     -0.32847694	      0.00000060	     -0.00000086	      2.76307435	     50.99597937	     -9.56042239	      5.21997485	     -0.02578839	      1.48581788	     -2.76307435	    -50.99597937	      9.56042239	     -1.74637766	      0.02558040	     -0.48301696	     -3.31599387	     20.97615968	     -3.40468921	      0.94473225	     -0.02138609	     -1.00501789	      3.31599387	    -20.97615968	      3.40468921	      0.28075727	      0.00368718	     -0.29758878	     21.58401759	    105.37216517	     -0.65710289	     -2.40721584	      0.57162347	      9.49624825	    -21.58401759	   -105.37216517	      0.65710289	      3.24919621	     -0.69170494	     -1.09562403	     63.14986233	     95.21769984	      5.52385471	     -0.28206109	     -1.38975235	     26.74356576	    -63.14986233	    -95.21769984	     -5.52385471	     -1.30951079	      1.03128942	     -2.36936188	      0.00000000	      0.00000000	      0.00000000	      0.00000000	      0.00000000	      0.00000000	      0.00000000	      0.00000000	      0.00000000	      0.00000000	      0.00000000	      0.00000000	      0.00000000	      0.00000000	      0.00000000	      0.00000000	      0.00000000	      0.00000000	      0.00000000	      0.00000000	      0.00000000	      0.00000000	      0.00000000	      0.00000000	     -0.03070814	     -0.11241154	      0.03807056	     -0.00251091	     -0.00007439	     -0.00224772	      0.03070814	      0.11241154	     -0.03807056	      0.01777885	     -0.00006088	      0.01416358	     -0.43821805	     -9.83308615	     -2.68606391	      0.37387991	      0.00054831	     -0.06295279	      0.43821805	      9.83308615	      2.68606391	     -1.35175896	     -0.00557183	      0.24087890	    107.56205089	    114.38893498	     10.20277205	      0.12259164
